<?xml version="1.0" encoding="UTF-8" standalone="no"?>
<!-- Created with Inkscape (http://www.inkscape.org/) -->

<svg
   xmlns:dc="http://purl.org/dc/elements/1.1/"
   xmlns:cc="http://creativecommons.org/ns#"
   xmlns:rdf="http://www.w3.org/1999/02/22-rdf-syntax-ns#"
   xmlns:svg="http://www.w3.org/2000/svg"
   xmlns="http://www.w3.org/2000/svg"
   xmlns:sodipodi="http://sodipodi.sourceforge.net/DTD/sodipodi-0.dtd"
   xmlns:inkscape="http://www.inkscape.org/namespaces/inkscape"
   width="1024mm"
   height="128mm"
   viewBox="0 0 1024 128"
   version="1.1"
   id="svg8"
   inkscape:version="0.92.2 (5c3e80d, 2017-08-06)"
   sodipodi:docname="pavement.svg"
   inkscape:export-filename="C:\Projects\fast-food-regurgitated\assets\pavement bl.png"
   inkscape:export-xdpi="25.4"
   inkscape:export-ydpi="25.4">
  <defs
     id="defs2" />
  <sodipodi:namedview
     id="base"
     pagecolor="#ffffff"
     bordercolor="#666666"
     borderopacity="1.0"
     inkscape:pageopacity="0.0"
     inkscape:pageshadow="2"
     inkscape:zoom="0.35"
     inkscape:cx="3033.4688"
     inkscape:cy="-261.24324"
     inkscape:document-units="mm"
     inkscape:current-layer="layer1"
     showgrid="false"
     inkscape:snap-page="false"
     inkscape:snap-bbox="true"
     inkscape:snap-bbox-edge-midpoints="false"
     inkscape:object-paths="true"
     inkscape:snap-smooth-nodes="true"
     inkscape:window-width="1920"
     inkscape:window-height="1017"
     inkscape:window-x="-8"
     inkscape:window-y="-8"
     inkscape:window-maximized="1" />
  <metadata
     id="metadata5">
    <rdf:RDF>
      <cc:Work
         rdf:about="">
        <dc:format>image/svg+xml</dc:format>
        <dc:type
           rdf:resource="http://purl.org/dc/dcmitype/StillImage" />
        <dc:title></dc:title>
      </cc:Work>
    </rdf:RDF>
  </metadata>
  <g
     inkscape:label="Layer 1"
     inkscape:groupmode="layer"
     id="layer1"
     transform="translate(0,-169)">
    <path
       style="opacity:1;vector-effect:none;fill:#f0f3d5;fill-opacity:1;fill-rule:evenodd;stroke:#cfd979;stroke-width:2;stroke-linecap:round;stroke-linejoin:round;stroke-miterlimit:4;stroke-dasharray:none;stroke-dashoffset:0;stroke-opacity:1;paint-order:stroke fill markers"
       d="m 0,169 h 256 256 256 256 l 6.8154,13.35417 6.8154,13.35416 6.8153,13.35417 6.8154,13.35417 10.1936,18.64583 10.1935,18.64584 10.1936,18.64583 L 1092.0357,297 H 802.01785 511.99999 221.98214 -68.035714 l 10.460825,-19.04674 10.460825,-19.04674 10.460825,-19.04673 10.460825,-19.04674 6.548103,-12.95326 6.548104,-12.95327 6.5481035,-12.95326 z"
       id="rect835"
       inkscape:connector-curvature="0"
       sodipodi:nodetypes="ccccccccccccccccccccccccc" />
    <path
       style="opacity:1;vector-effect:none;fill:#f0f3d5;fill-opacity:1;fill-rule:evenodd;stroke:#cfd979;stroke-width:2;stroke-linecap:round;stroke-linejoin:round;stroke-miterlimit:4;stroke-dasharray:none;stroke-dashoffset:0;stroke-opacity:1;paint-order:stroke fill markers"
       d="m 0,169 h 32 32 32 32 l -5.11153,13.35417 -5.11153,13.35416 -5.11154,13.35417 -5.11153,13.35417 H 73.850027 40.146185 6.4423425 -27.2615 l 6.815375,-13.35417 6.815375,-13.35417 6.815375,-13.35416 z"
       id="rect910"
       inkscape:connector-curvature="0"
       sodipodi:nodetypes="ccccccccccccccccc" />
    <path
       style="opacity:1;vector-effect:none;fill:#f0f3d5;fill-opacity:1;fill-rule:evenodd;stroke:#cfd979;stroke-width:2;stroke-linecap:round;stroke-linejoin:round;stroke-miterlimit:4;stroke-dasharray:none;stroke-dashoffset:0;stroke-opacity:1;paint-order:stroke fill markers"
       d="m 983.85381,222.41667 h 16.85189 16.852 16.8519 16.8519 l 10.1936,18.64583 10.1935,18.64584 10.1936,18.64583 L 1092.0357,297 h -18.1261 -18.1261 -18.1262 -18.1261 l -8.9193,-18.64583 -8.9194,-18.64583 -8.91934,-18.64584 z"
       id="rect852"
       inkscape:connector-curvature="0"
       sodipodi:nodetypes="ccccccccccccccccc" />
    <path
       style="opacity:1;vector-effect:none;fill:#f0f3d5;fill-opacity:1;fill-rule:evenodd;stroke:#cfd979;stroke-width:2;stroke-linecap:round;stroke-linejoin:round;stroke-miterlimit:4;stroke-dasharray:none;stroke-dashoffset:0;stroke-opacity:1;paint-order:stroke fill markers"
       d="m 896,169 h 32 32 32 32 l 6.8154,13.35417 6.8154,13.35416 6.8153,13.35417 6.8154,13.35417 h -33.7038 -33.70388 -33.70385 -33.70384 l -5.11153,-13.35417 -5.11153,-13.35417 -5.11154,-13.35416 z"
       id="rect854"
       inkscape:connector-curvature="0"
       sodipodi:nodetypes="ccccccccccccccccc" />
    <path
       style="opacity:1;vector-effect:none;fill:#f0f3d5;fill-opacity:1;fill-rule:evenodd;stroke:#cfd979;stroke-width:2;stroke-linecap:round;stroke-linejoin:round;stroke-miterlimit:4;stroke-dasharray:none;stroke-dashoffset:0;stroke-opacity:1;paint-order:stroke fill markers"
       d="m 849.03844,222.41667 h 33.70384 33.70385 33.70384 33.70384 l 8.91935,18.64583 8.91934,18.64584 8.9194,18.64583 8.9193,18.64583 h -36.25222 -36.25222 -36.25223 -36.25222 l -6.37097,-18.64583 -6.37096,-18.64583 -6.37097,-18.64584 z"
       id="rect860"
       inkscape:connector-curvature="0"
       sodipodi:nodetypes="ccccccccccccccccc" />
    <path
       style="opacity:1;vector-effect:none;fill:#f0f3d5;fill-opacity:1;fill-rule:evenodd;stroke:#cfd979;stroke-width:2;stroke-linecap:round;stroke-linejoin:round;stroke-miterlimit:4;stroke-dasharray:none;stroke-dashoffset:0;stroke-opacity:1;paint-order:stroke fill markers"
       d="m 768,169 h 32 32 32 32 l 5.11153,13.35417 5.11154,13.35416 5.11153,13.35417 5.11153,13.35417 H 882.74229 849.03844 815.3346 781.63075 l -3.40769,-13.35417 -3.40768,-13.35417 -3.40769,-13.35416 z"
       id="rect862"
       inkscape:connector-curvature="0"
       sodipodi:nodetypes="ccccccccccccccccc" />
    <path
       style="opacity:1;vector-effect:none;fill:#f0f3d5;fill-opacity:1;fill-rule:evenodd;stroke:#cfd979;stroke-width:2;stroke-linecap:round;stroke-linejoin:round;stroke-miterlimit:4;stroke-dasharray:none;stroke-dashoffset:0;stroke-opacity:1;paint-order:stroke fill markers"
       d="m 714.22306,222.41667 h 33.70385 33.70384 33.70385 33.70384 l 6.37097,18.64583 6.37097,18.64584 6.37096,18.64583 L 874.52231,297 h -36.25223 -36.25223 -36.25223 -36.25223 l -3.82258,-18.64583 -3.82259,-18.64583 -3.82258,-18.64584 z"
       id="rect864"
       inkscape:connector-curvature="0"
       sodipodi:nodetypes="ccccccccccccccccc" />
    <path
       style="opacity:1;vector-effect:none;fill:#f0f3d5;fill-opacity:1;fill-rule:evenodd;stroke:#cfd979;stroke-width:2;stroke-linecap:round;stroke-linejoin:round;stroke-miterlimit:4;stroke-dasharray:none;stroke-dashoffset:0;stroke-opacity:1;paint-order:stroke fill markers"
       d="m 640,169.85037 h 31.78741 31.78741 31.78741 31.78741 l 3.39637,12.92898 3.39636,12.92897 3.39637,12.92898 3.39637,12.92898 h -33.47993 -33.47994 -33.47993 -33.47993 l -1.70385,-12.92898 -1.70384,-12.92898 -1.70385,-12.92897 z"
       id="rect866"
       inkscape:connector-curvature="0"
       sodipodi:nodetypes="ccccccccccccccccc" />
    <path
       style="opacity:1;vector-effect:none;fill:#f0f3d5;fill-opacity:1;fill-rule:evenodd;stroke:#cfd979;stroke-width:2;stroke-linecap:round;stroke-linejoin:round;stroke-miterlimit:4;stroke-dasharray:none;stroke-dashoffset:0;stroke-opacity:1;paint-order:stroke fill markers"
       d="m 579.40769,222.41667 h 33.70384 33.70385 33.70384 33.70384 l 3.82258,18.64583 3.82258,18.64584 3.82259,18.64583 L 729.51339,297 h -36.25223 -36.25224 -36.25223 -36.25223 l -1.27419,-18.64583 -1.27419,-18.64583 -1.2742,-18.64584 z"
       id="rect872"
       inkscape:connector-curvature="0"
       sodipodi:nodetypes="ccccccccccccccccc" />
    <path
       style="opacity:1;vector-effect:none;fill:#f0f3d5;fill-opacity:1;fill-rule:evenodd;stroke:#cfd979;stroke-width:2;stroke-linecap:round;stroke-linejoin:round;stroke-miterlimit:4;stroke-dasharray:none;stroke-dashoffset:0;stroke-opacity:1;paint-order:stroke fill markers"
       d="m 512,169 h 32 32 32 32 l 1.70384,13.35417 1.70385,13.35416 1.70384,13.35417 1.70385,13.35417 H 613.11153 579.40769 545.70384 512 V 209.0625 195.70833 182.35417 Z"
       id="rect874"
       inkscape:connector-curvature="0"
       sodipodi:nodetypes="ccccccccccccccccc" />
    <path
       style="opacity:1;vector-effect:none;fill:#f0f3d5;fill-opacity:1;fill-rule:evenodd;stroke:#cfd979;stroke-width:2;stroke-linecap:round;stroke-linejoin:round;stroke-miterlimit:4;stroke-dasharray:none;stroke-dashoffset:0;stroke-opacity:1;paint-order:stroke fill markers"
       d="M 444.59231,222.41667 H 478.29615 512 h 33.70385 33.70384 l 1.27419,18.64583 1.2742,18.64584 1.27419,18.64583 L 584.50446,297 H 548.25223 512 475.74777 439.49554 l 1.27419,-18.64583 1.27419,-18.64583 1.2742,-18.64584 z"
       id="rect884"
       inkscape:connector-curvature="0"
       sodipodi:nodetypes="ccccccccccccccccc" />
    <path
       style="opacity:1;vector-effect:none;fill:#f0f3d5;fill-opacity:1;fill-rule:evenodd;stroke:#cfd979;stroke-width:2;stroke-linecap:round;stroke-linejoin:round;stroke-miterlimit:4;stroke-dasharray:none;stroke-dashoffset:0;stroke-opacity:1;paint-order:stroke fill markers"
       d="m 384,169 h 32 32 32 32 v 13.35417 13.35416 13.35417 13.35417 h -33.70385 -33.70384 -33.70385 -33.70384 l 1.70384,-13.35417 1.70385,-13.35417 1.70384,-13.35416 z"
       id="rect886"
       inkscape:connector-curvature="0"
       sodipodi:nodetypes="ccccccccccccccccc" />
    <path
       style="opacity:1;vector-effect:none;fill:#f0f3d5;fill-opacity:1;fill-rule:evenodd;stroke:#cfd979;stroke-width:2;stroke-linecap:round;stroke-linejoin:round;stroke-miterlimit:4;stroke-dasharray:none;stroke-dashoffset:0;stroke-opacity:1;paint-order:stroke fill markers"
       d="m 309.77694,222.41667 h 33.70384 33.70384 33.70385 33.70384 l -1.27419,18.64583 -1.2742,18.64584 -1.27419,18.64583 L 439.49554,297 h -36.25223 -36.25223 -36.25224 -36.25223 l 3.82258,-18.64583 3.82259,-18.64583 3.82258,-18.64584 z"
       id="rect888"
       inkscape:connector-curvature="0"
       sodipodi:nodetypes="ccccccccccccccccc" />
    <path
       style="opacity:1;vector-effect:none;fill:#f0f3d5;fill-opacity:1;fill-rule:evenodd;stroke:#cfd979;stroke-width:2;stroke-linecap:round;stroke-linejoin:round;stroke-miterlimit:4;stroke-dasharray:none;stroke-dashoffset:0;stroke-opacity:1;paint-order:stroke fill markers"
       d="m 256,169 h 32 32 32 32 l -1.70385,13.35417 -1.70384,13.35416 -1.70385,13.35417 -1.70384,13.35417 h -33.70384 -33.70384 -33.70385 -33.70384 l 3.40769,-13.35417 3.40768,-13.35417 3.40769,-13.35416 z"
       id="rect894"
       inkscape:connector-curvature="0"
       sodipodi:nodetypes="ccccccccccccccccc" />
    <path
       style="opacity:1;vector-effect:none;fill:#f0f3d5;fill-opacity:1;fill-rule:evenodd;stroke:#cfd979;stroke-width:2;stroke-linecap:round;stroke-linejoin:round;stroke-miterlimit:4;stroke-dasharray:none;stroke-dashoffset:0;stroke-opacity:1;paint-order:stroke fill markers"
       d="m 174.96156,222.41667 h 33.70384 33.70385 33.70384 33.70385 l -3.82258,18.64583 -3.82258,18.64584 -3.82259,18.64583 L 294.48661,297 h -36.25223 -36.25223 -36.25223 -36.25223 l 6.37097,-18.64583 6.37096,-18.64583 6.37097,-18.64584 z"
       id="rect896"
       inkscape:connector-curvature="0"
       sodipodi:nodetypes="ccccccccccccccccc" />
    <path
       style="opacity:1;vector-effect:none;fill:#f0f3d5;fill-opacity:1;fill-rule:evenodd;stroke:#cfd979;stroke-width:2;stroke-linecap:round;stroke-linejoin:round;stroke-miterlimit:4;stroke-dasharray:none;stroke-dashoffset:0;stroke-opacity:1;paint-order:stroke fill markers"
       d="m 128,169 h 32 32 32 32 l -3.40769,13.35417 -3.40769,13.35416 -3.40768,13.35417 -3.40769,13.35417 H 208.6654 174.96156 141.25772 107.55387 l 5.11153,-13.35417 5.11154,-13.35417 5.11153,-13.35416 z"
       id="rect898"
       inkscape:connector-curvature="0"
       sodipodi:nodetypes="ccccccccccccccccc" />
    <path
       style="opacity:1;vector-effect:none;fill:#f0f3d5;fill-opacity:1;fill-rule:evenodd;stroke:#cfd979;stroke-width:2;stroke-linecap:round;stroke-linejoin:round;stroke-miterlimit:4;stroke-dasharray:none;stroke-dashoffset:0;stroke-opacity:1;paint-order:stroke fill markers"
       d="m 40.146187,222.41667 h 33.703843 33.70384 33.70385 33.70384 l -6.37097,18.64583 -6.37097,18.64584 -6.37096,18.64583 L 149.47769,297 H 113.22546 76.973226 40.720994 4.4687625 l 8.9193565,-18.64583 8.919356,-18.64583 8.919356,-18.64584 z"
       id="rect904"
       inkscape:connector-curvature="0"
       sodipodi:nodetypes="ccccccccccccccccc" />
    <path
       style="opacity:1;vector-effect:none;fill:#f0f3d5;fill-opacity:1;fill-rule:evenodd;stroke:#cfd979;stroke-width:2;stroke-linecap:round;stroke-linejoin:round;stroke-miterlimit:4;stroke-dasharray:none;stroke-dashoffset:0;stroke-opacity:1;paint-order:stroke fill markers"
       d="M -27.2615,222.41667 H -10.409578 6.4423435 23.294265 40.146187 L 31.226831,241.0625 22.307475,259.70834 13.388119,278.35417 4.4687625,297 H -13.657353 -31.783469 -49.909584 -68.0357 l 10.19355,-18.64583 10.19355,-18.64583 10.19355,-18.64584 z"
       id="rect912"
       inkscape:connector-curvature="0"
       sodipodi:nodetypes="ccccccccccccccccc" />
  </g>
</svg>
